# xmcd CD database file generated by OrangeCD 6.4
#
# Track frame offsets:
#	150
#	13287
#	30197
#	50958
#	67302
#	87659
#	99701
#	123215
#	144969
#	160257
#	176379
#	197173
#	210589
#	233749
#
# Disc length: 3371 seconds
#
# Revision: 0
# Processed by: cddbd v1.5.2PL0 Copyright (c) Steve Scherf et al.
# Submitted via: OrangeCD 6.4
#
DISCID=c50d290e
DTITLE=Ron Lasalle - Nobody Rides for Free
DYEAR=2007
DGENRE=
TTITLE0=Nashville Blues
TTITLE1=Got Love To Blame
TTITLE2=Changing Horses
TTITLE3=She Did Love Me
TTITLE4=I Am Love
TTITLE5=I Still Talk To Angels
TTITLE6=Try To Trust Again
TTITLE7=Changed My Ways
TTITLE8=Act Our Age
TTITLE9=To You
TTITLE10=What Never Was
TTITLE11=Running Blues
TTITLE12=Nobody Rides For Free
TTITLE13=[Unknown]
EXTD=
EXTT0=
EXTT1=
EXTT2=
EXTT3=
EXTT4=
EXTT5=
EXTT6=
EXTT7=
EXTT8=
EXTT9=
EXTT10=
EXTT11=
EXTT12=
EXTT13=
PLAYORDER=
